<svg width="1200" height="760" viewBox="0 0 1200 760" fill="none" xmlns="http://www.w3.org/2000/svg">
  <defs>
    <linearGradient id="bg" x1="0" y1="0" x2="1200" y2="760" gradientUnits="userSpaceOnUse">
      <stop stop-color="#0B1322"/>
      <stop offset="1" stop-color="#141D33"/>
    </linearGradient>
  </defs>
  <rect width="1200" height="760" rx="24" fill="url(#bg)"/>
  <rect x="72" y="68" width="1056" height="624" rx="20" fill="#121D31" stroke="#344863"/>
  <rect x="104" y="106" width="992" height="78" rx="12" fill="#1A2A44"/>
  <text x="136" y="154" fill="#E4EDFC" font-family="Arial, sans-serif" font-size="24">Relatorios e exportacao</text>

  <rect x="104" y="220" width="640" height="438" rx="14" fill="#101A2C" stroke="#2D4260"/>
  <rect x="132" y="252" width="584" height="44" rx="10" fill="#21314C"/>
  <rect x="132" y="314" width="584" height="34" rx="8" fill="#192A41"/>
  <rect x="132" y="358" width="584" height="34" rx="8" fill="#192A41"/>
  <rect x="132" y="402" width="584" height="34" rx="8" fill="#192A41"/>
  <rect x="132" y="446" width="584" height="34" rx="8" fill="#192A41"/>
  <rect x="132" y="490" width="584" height="34" rx="8" fill="#192A41"/>
  <rect x="132" y="542" width="280" height="86" rx="12" fill="#173958"/>
  <rect x="436" y="542" width="280" height="86" rx="12" fill="#29441A"/>

  <rect x="772" y="220" width="324" height="438" rx="14" fill="#101A2C" stroke="#2D4260"/>
  <rect x="802" y="258" width="264" height="172" rx="12" fill="#17283F"/>
  <rect x="802" y="450" width="264" height="56" rx="11" fill="#173858"/>
  <rect x="802" y="518" width="264" height="56" rx="11" fill="#4A3416"/>
  <rect x="802" y="586" width="264" height="42" rx="10" fill="#193A5B"/>
  <circle cx="832" cy="478" r="7" fill="#2CE0A7"/>
  <circle cx="832" cy="546" r="7" fill="#EAC43A"/>
  <circle cx="832" cy="607" r="7" fill="#38D5FF"/>
</svg>
