<svg width="1200" height="760" viewBox="0 0 1200 760" fill="none" xmlns="http://www.w3.org/2000/svg">
  <defs>
    <linearGradient id="bg" x1="0" y1="0" x2="1200" y2="760" gradientUnits="userSpaceOnUse">
      <stop stop-color="#0A111E"/>
      <stop offset="1" stop-color="#121A2C"/>
    </linearGradient>
    <linearGradient id="payoff" x1="0" y1="0" x2="1" y2="1">
      <stop stop-color="#2CE0A7"/>
      <stop offset="1" stop-color="#38D5FF"/>
    </linearGradient>
  </defs>
  <rect width="1200" height="760" rx="24" fill="url(#bg)"/>
  <rect x="70" y="66" width="1060" height="628" rx="20" fill="#121D32" stroke="#324661"/>
  <rect x="102" y="104" width="996" height="78" rx="12" fill="#1B2A44"/>
  <text x="134" y="152" fill="#E2ECFB" font-family="Arial, sans-serif" font-size="24">Vencimentos e payoff</text>

  <rect x="102" y="216" width="998" height="204" rx="14" fill="#0F1A2C" stroke="#2E4261"/>
  <line x1="140" y1="382" x2="1060" y2="382" stroke="#29415E"/>
  <line x1="580" y1="248" x2="580" y2="382" stroke="#29415E"/>
  <path d="M180 350L468 350L580 316L710 266L868 220L1024 178" stroke="url(#payoff)" stroke-width="7" stroke-linecap="round"/>
  <text x="140" y="248" fill="#95A8C7" font-family="Arial, sans-serif" font-size="12">Grafico de payoff com eixos</text>

  <rect x="102" y="448" width="998" height="214" rx="14" fill="#0F1A2C" stroke="#2E4261"/>
  <rect x="130" y="478" width="942" height="40" rx="8" fill="#21324C"/>
  <rect x="130" y="528" width="942" height="30" rx="8" fill="#192941"/>
  <rect x="130" y="566" width="942" height="30" rx="8" fill="#192941"/>
  <rect x="130" y="604" width="942" height="30" rx="8" fill="#192941"/>
  <circle cx="154" cy="543" r="6" fill="#2CE0A7"/>
  <circle cx="154" cy="581" r="6" fill="#EAC43A"/>
  <circle cx="154" cy="619" r="6" fill="#FF6E86"/>
</svg>
